<svg xmlns="http://www.w3.org/2000/svg" viewBox="0 0 24 24" fill="currentColor"><path d="M14 8C14 9.66 12.66 11 11 11C9.34 11 8 9.66 8 8C8 6.34 9.34 5 11 5C12.66 5 14 6.34 14 8ZM18.5 11C20.43 11 22 9.43 22 7.5C22 5.57 20.43 4 18.5 4C16.57 4 15 5.57 15 7.5C15 9.43 16.57 11 18.5 11ZM11 13C8.33 13 3 14.34 3 17V20H19V17C19 14.34 13.67 13 11 13ZM17 18H5V17.01C5.2 16.29 8.3 15 11 15C13.7 15 16.8 16.29 17 17V18ZM18.5 13C18.17 13 17.79 13.02 17.39 13.05C18.5 13.86 19.25 14.97 19.25 16.5V20H23V17C23 14.33 19.67 13 18.5 13Z"></path></svg>
